# AST/ASF file generated using VICON BodyLanguage
# -----------------------------------------------
:version 1.10
:name VICON
:units
  mass 1.0
  length 0.45
  angle deg
:documentation
   .ast/.asf automatically generated from VICON data using
   VICON BodyBuilder and BodyLanguage model FoxedUp or BRILLIANT.MOD
:root
   order TX TY TZ RX RY RZ
   axis XYZ
   position 0 0 0  
   orientation 0 0 0 
:bonedata
  begin
     id 1 
     name lhipjoint
     direction 0.440178 -0.822639 0.359871 
     length 2.53113 
     axis 0 0 0  XYZ
  end
  begin
     id 2 
     name lfemur
     direction 0.34202 -0.939693 0  
     length 7.88132  
     axis 0 0 20  XYZ
    dof rx ry rz
    limits (-160.0 20.0)
           (-70.0 70.0)
           (-60.0 70.0)
  end
  begin
     id 3 
     name ltibia
     direction 0.34202 -0.939693 0   
     length 8.43783   
     axis 0 0 20   XYZ
    dof rx
    limits (-10.0 170.0)
  end
  begin
     id 4 
     name lfoot
     direction 0.0886351 -0.243523 0.965837   
     length 2.63414   
     axis -90 7.62852e-016 20   XYZ
    dof rx rz
    limits (-45.0 90.0)
           (-70.0 20.0)
  end
  begin
     id 5 
     name ltoes
     direction 1.53703e-011 -4.21717e-011 1   
     length 1.31427   
     axis -90 7.62852e-016 20   XYZ
    dof rx
    limits (-90.0 20.0)
  end
  begin
     id 6 
     name rhipjoint
     direction -0.399779 -0.839773 0.367367   
     length 2.47948  
     axis 0 0 0  XYZ 
  end
  begin
     id 7 
     name rfemur
     direction -0.34202 -0.939693 0   
     length 7.74806   
     axis 0 0 -20   XYZ
    dof rx ry rz
    limits (-160.0 20.0)
           (-70.0 70.0)
           (-70.0 60.0)
  end
  begin
     id 8 
     name rtibia
     direction -0.34202 -0.939693 0   
     length 8.74432   
     axis 0 0 -20   XYZ
    dof rx
    limits (-10.0 170.0)
 end
 begin
     id 9 
     name rfoot
     direction -0.108514 -0.298139 0.948334   
     length 2.66102  
     axis -90 -7.62852e-016 -20   XYZ
    dof rx rz
    limits (-45.0 90.0)
           (-20.0 70.0)
  end
  begin
     id 10 
     name rtoes
     direction -1.53392e-011 -4.22077e-011 1   
     length 1.31983   
     axis -90 -7.62852e-016 -20   XYZ
    dof rx
    limits (-90.0 20.0)
  end
  begin
     id 11 
     name lowerback
     direction 0.0113257 0.999866 0.0118602   
     length 2.58694   
     axis 0 0 0   XYZ
    dof rx ry rz
    limits (-20.0 45.0)
           (-30.0 30.0)
           (-30.0 30.0)
  end
  begin
     id 12 
     name upperback
     direction -0.0164747 0.995193 -0.0965375   
     length 2.52368   
     axis 0 0 0   XYZ
    dof rx ry rz
    limits (-20.0 45.0)
           (-30.0 30.0)
           (-30.0 30.0)
  end
  begin
     id 13 
     name thorax
     direction -0.0194301 0.99433 -0.104552   
     length 2.56099   
     axis 0 0 0   XYZ
    dof rx ry rz
    limits (-20.0 45.0)
           (-30.0 30.0)
           (-30.0 30.0)
  end
  begin
     id 14 
     name lowerneck
     direction 0.0148543 0.995587 -0.092657   
     length 1.71582   
     axis 0 0 0   XYZ
    dof rx ry rz
    limits (-20.0 45.0)
           (-30.0 30.0)
           (-30.0 30.0)
  end
  begin
     id 15 
     name upperneck
     direction -0.0135467 0.993656 -0.111639   
     length 1.68937   
     axis 0 0 0   XYZ
    dof rx ry rz
    limits (-20.0 45.0)
           (-30.0 30.0)
           (-30.0 30.0)
  end
  begin
     id 16
     name head
     direction -0.00615349 0.999547 -0.029448  
     length 1.7462  
     axis 0 0 0   XYZ
    dof rx ry rz
    limits (-20.0 45.0)
           (-30.0 30.0)
           (-30.0 30.0)
  end
  begin
     id 17 
     name lclavicle
     direction 0.988267 0.149885 0.0293713  
     length 4.47222  
     axis 0 0 0   XYZ
    dof ry rz
    limits (-20.0 10.0)
           (0.0 20.0)
  end
  begin
     id 18 
     name lhumerus
     direction 1 -4.48986e-011 -1.14833e-027   
     length 5.37148   
     axis 180 -30 -90   XYZ
    dof rx ry rz
    limits (-60.0 90.0)
           (-90.0 90.0)
           (-90.0 90.0)
  end
  begin
     id 19
     name lradius
     direction 0.999998 0.00170963 -0.000987055   
     length 3.94212   
     axis 180 -30 -90   XYZ
    dof rx
    limits (-10.0 170.0)
  end
  begin
     id 20
     name lwrist
     direction 0.999998 7.53149e-005 -0.00194706   
     length 1.97106   
     axis 4.65056e-015 90 90   XYZ
    dof ry
    limits (-180.0 0.0)
 end
  begin
     id 21 
     name lhand
     direction 1 -4.48973e-011 -1.31746e-026   
     length 1.17917   
     axis 8.4065e-015 90 90   XYZ
    dof rx rz
    limits (-90.0 90.0)
           (-45.0 45.0)
  end
  begin
     id 22 
     name lfingers
     direction 1 -4.49107e-011 -2.63492e-026   
     length 0.950679   
     axis 1.6813e-014 90 90   XYZ
    dof rx
    limits (0.0 90.0)
  end
  begin
     id 23
     name lthumb
     direction 0.707107 -6.35048e-011 0.707107   
     length 1.36499   
     axis -90 45 2.85299e-015   XYZ
    dof rx rz
    limits (-45.0 45.0)
           (-45.0 45.0)
  end
  begin
     id 24 
     name rclavicle
     direction -0.996699 0.0642895 -0.0495725   
     length 4.62611  
     axis 0 0 0   XYZ 
    dof ry rz
    limits (-10.0 20.0)
           (-20.0 0.0)
  end
  begin
     id 25 
     name rhumerus
     direction -1 -4.48919e-011 -2.41059e-027  
     length 5.4981   
     axis 180 30 90   XYZ
    dof rx ry rz
    limits (-90.0 60.0)
           (-90.0 90.0)
           (-90.0 90.0)
  end
  begin
     id 26 
     name rradius
     direction -0.999999 0.00118101 -0.000681858   
     length 3.48381   
     axis 180 30 90   XYZ
    dof rx
    limits (-10.0 170.0)
  end
  begin
     id 27 
     name rwrist
     direction -0.999999 0.000321823 -0.00132288   
     length 1.7419   
     axis 4.65056e-015 -90 -90   XYZ
    dof ry
    limits (-180.0 0.0)
  end
  begin
     id 28
     name rhand
     direction -1 -4.49022e-011 -1.31746e-026   
     length 1.34932   
     axis 8.4065e-015 -90 -90   XYZ
    dof rx rz
    limits (-90.0 90.0)
           (-45.0 45.0)
  end
  begin
     id 29
     name rfingers
     direction -1 -4.49178e-011 -2.63492e-026   
     length 1.08785   
     axis 1.6813e-014 -90 -90   XYZ
    dof rx
    limits (0.0 90.0)
  end
  begin
     id 30
     name rthumb
     direction -0.707107 -6.34713e-011 0.707107   
     length 1.56195   
     axis -90 -45 -2.85299e-015   XYZ
    dof rx rz
    limits (-45.0 45.0)
           (-45.0 45.0)
  end
:hierarchy
  begin
    root lhipjoint rhipjoint lowerback
    lhipjoint lfemur
    lfemur ltibia
    ltibia lfoot
    lfoot ltoes
    rhipjoint rfemur
    rfemur rtibia
    rtibia rfoot
    rfoot rtoes
    lowerback upperback
    upperback thorax
    thorax lowerneck lclavicle rclavicle
    lowerneck upperneck
    upperneck head
    lclavicle lhumerus
    lhumerus lradius
    lradius lwrist
    lwrist lhand lthumb
    lhand lfingers
    rclavicle rhumerus
    rhumerus rradius
    rradius rwrist
    rwrist rhand rthumb
    rhand rfingers
  end

#!OML:ASF X:\für Bonn\!DataBase\2005_08_10_Bjorn_Final\c3d\bjorn.ASF
:FULLY-SPECIFIED
:DEGREES
1
root 1.21729 19.1662 2.28302 -176.045 -2.0187 -179.055
lowerback -7.72574 1.04202 2.85227
upperback 3.68132 0.982474 0.54214
thorax 8.27366 0.595187 -0.888029
lowerneck -11.578 -1.82248 5.75179
upperneck 19.7176 -4.3337 -0.397143
head 7.88749 -1.95854 -1.56146
rclavicle 8.79622e-015 1.78906e-015
rhumerus 68.8987 2.30725 -81.2272
rradius 3.26098
rwrist 46.3107
rhand -14.5353 4.37627
rfingers 7.12502
rthumb 11.6129 -25.2819
lclavicle 8.79622e-015 1.78906e-015
lhumerus 70.0598 -18.0358 74.4145
lradius 6.79001
lwrist -53.2651
lhand -16.2701 -3.27409
lfingers 7.12502
lthumb 9.93955 26.4712
rfemur -13.1682 -19.7908 19.3255
rtibia 30.8484
rfoot -16.9066 18.3991
rtoes -8.97772
lfemur -13.5735 7.22323 -16.9215
ltibia 32.6923
lfoot -15.4197 -12.9616
ltoes -3.41725
2
root 1.21963 19.1663 2.28553 -176.091 -2.21039 -179.106
lowerback -7.4117 0.982033 2.82472
upperback 3.76573 0.90808 0.552346
thorax 8.17784 0.554505 -0.87685
lowerneck -11.8105 -1.82697 5.7687
upperneck 19.6075 -4.3148 -0.455942
head 7.89082 -1.94467 -1.58267
rclavicle -1.18774e-014 -1.39149e-014
rhumerus 68.9835 2.36162 -81.0946
rradius 3.32276
rwrist 46.3777
rhand -14.503 4.42371
rfingers 7.12502
rthumb 11.6441 -25.2327
lclavicle -1.18774e-014 -1.39149e-014
lhumerus 70.1192 -18.0135 74.2818
lradius 6.82759
lwrist -52.903
lhand -16.4617 -3.27956
lfingers 7.12502
lthumb 9.7547 26.4745
rfemur -13.1233 -19.3035 19.3171
rtibia 30.9084
rfoot -17.2623 17.6428
rtoes -9.60177
lfemur -13.6681 7.15892 -17.0235
ltibia 32.8867
lfoot -15.3952 -12.7506
ltoes -3.65914
3
root 1.22142 19.1665 2.28979 -176.135 -2.3904 -179.175
lowerback -7.07517 0.919622 2.7633
upperback 3.85173 0.832432 0.579331
thorax 8.06965 0.510318 -0.828921
lowerneck -11.9579 -1.83176 5.62775
upperneck 19.4147 -4.27849 -0.394596
head 7.85803 -1.92403 -1.53345
rclavicle -1.53064e-014 -7.95139e-016
rhumerus 69.0847 2.42367 -80.9239
rradius 3.36327
rwrist 46.4725
rhand -14.4993 4.5214
rfingers 7.12502
rthumb 11.6476 -25.1349
lclavicle -1.53064e-014 -7.95139e-016
lhumerus 70.1922 -17.9632 74.1778
lradius 6.86161
lwrist -52.539
lhand -16.6094 -3.28868
lfingers 7.12502
lthumb 9.61222 26.472
rfemur -13.1104 -18.8639 19.2864
rtibia 31.003
rfoot -17.5455 16.9605
rtoes -10.1362
lfemur -13.7929 7.10659 -17.1588
ltibia 33.1308
lfoot -15.3906 -12.4884
ltoes -4.12581
4
root 1.22267 19.1647 2.29566 -176.209 -2.57185 -179.225
lowerback -6.68723 0.866545 2.75031
upperback 3.94271 0.766536 0.582731
thorax 7.93869 0.473642 -0.831731
lowerneck -12.0354 -1.84867 5.45398
upperneck 19.1733 -4.26003 -0.270096
head 7.79846 -1.91017 -1.45783
rclavicle 1.50579e-014 6.16232e-015
rhumerus 69.1817 2.46454 -80.7958
rradius 3.40219
rwrist 46.5742
rhand -14.4661 4.56755
rfingers 7.12502
rthumb 11.6797 -25.0869
lclavicle 1.50579e-014 6.16232e-015
lhumerus 70.2829 -17.9427 74.032
lradius 6.90776
lwrist -52.2404
lhand -16.6475 -3.26144
lfingers 7.12502
lthumb 9.57547 26.501
rfemur -13.0855 -18.3341 19.2662
rtibia 31.1362
rfoot -17.8699 16.2021
rtoes -10.6383
lfemur -13.9211 7.1747 -17.2847
ltibia 33.4185
lfoot -15.4604 -12.2088
ltoes -5.05606
5
root 1.22396 19.1616 2.30383 -176.271 -2.75289 -179.293
lowerback -6.28184 0.814057 2.73706
upperback 4.04205 0.70236 0.567628
thorax 7.80689 0.43804 -0.853144
lowerneck -12.1072 -1.854 5.23574
upperneck 18.9117 -4.23097 -0.069608
head 7.73457 -1.88751 -1.34878
rclavicle -1.23246e-014 -1.80894e-014
rhumerus 69.3221 2.47687 -80.6776
rradius 3.41783
rwrist 46.67
rhand -14.4433 4.66372
rfingers 7.12502
rthumb 11.7016 -24.9895
lclavicle -1.23246e-014 -1.80894e-014
lhumerus 70.396 -17.9121 73.8521
lradius 6.98627
lwrist -51.9783
lhand -16.6826 -3.2574
lfingers 7.12502
lthumb 9.54159 26.5066
rfemur -13.1014 -17.8581 19.2347
rtibia 31.3033
rfoot -18.1718 15.4898
rtoes -11.0666
lfemur -14.0956 7.18617 -17.4422
ltibia 33.7525
lfoot -15.4946 -11.8655
ltoes -5.73233
6
root 1.225 19.1596 2.31367 -176.345 -2.93408 -179.345
lowerback -5.84867 0.753863 2.71971
upperback 4.15401 0.623945 0.587007
thorax 7.67148 0.393182 -0.837402
lowerneck -12.1427 -1.86899 4.93804
upperneck 18.593 -4.18773 0.120756
head 7.64652 -1.86441 -1.2272
rclavicle -7.70291e-015 -4.77083e-015
rhumerus 69.5244 2.51857 -80.5146
rradius 3.37428
rwrist 46.8197
rhand -14.4495 4.73874
rfingers 7.12502
rthumb 11.6957 -24.9148
lclavicle -7.70291e-015 -4.77083e-015
lhumerus 70.5136 -17.8274 73.7043
lradius 7.07851
lwrist -51.7053
lhand -16.6836 -3.25171
lfingers 7.12502
lthumb 9.54059 26.5123
rfemur -13.1311 -17.3705 19.215
rtibia 31.5102
rfoot -18.443 14.7961
rtoes -11.4499
lfemur -14.2833 7.15454 -17.5849
ltibia 34.1213
lfoot -15.3881 -11.4998
ltoes -5.70374
7
root 1.22637 19.1563 2.32514 -176.435 -3.10473 -179.412
lowerback -5.35997 0.702684 2.69585
upperback 4.26371 0.560417 0.588549
thorax 7.50206 0.355023 -0.834716
lowerneck -12.1495 -1.88458 4.6616
upperneck 18.2621 -4.15363 0.331187
head 7.54948 -1.84341 -1.10336
rclavicle -1.36167e-014 -1.07344e-014
rhumerus 69.7336 2.52145 -80.3604
rradius 3.30332
rwrist 46.9315
rhand -14.4837 4.8495
rfingers 7.12502
rthumb 11.6626 -24.8059
lclavicle -1.36167e-014 -1.07344e-014
lhumerus 70.6063 -17.7875 73.5512
lradius 7.22304
lwrist -51.4528
lhand -16.6526 -3.25635
lfingers 7.12502
lthumb 9.57056 26.5063
rfemur -13.1697 -16.9042 19.1725
rtibia 31.7497
rfoot -18.7358 14.1175
rtoes -11.9636
lfemur -14.4714 7.11731 -17.7397
ltibia 34.5242
lfoot -15.1782 -11.1513
ltoes -5.07374
8
root 1.22808 19.1511 2.33813 -176.552 -3.2475 -179.477
lowerback -4.82108 0.663429 2.68785
upperback 4.38677 0.511686 0.575122
thorax 7.31885 0.324433 -0.854557
lowerneck -12.1374 -1.90397 4.46266
upperneck 17.9108 -4.11824 0.446851
head 7.43867 -1.82538 -1.02274
rclavicle -5.2181e-015 -1.19271e-015
rhumerus 70.0261 2.50109 -80.22
rradius 3.11444
rwrist 47.0709
rhand -14.5776 4.98881
rfingers 7.12502
rthumb 11.5721 -24.6717
lclavicle -5.2181e-015 -1.19271e-015
lhumerus 70.6956 -17.7501 73.369
lradius 7.39357
lwrist -51.2554
lhand -16.6676 -3.23809
lfingers 7.12502
lthumb 9.5561 26.5252
rfemur -13.2047 -16.4646 19.1263
rtibia 32.0219
rfoot -18.9887 13.4732
rtoes -12.4946
lfemur -14.6522 7.01966 -17.8864
ltibia 34.9664
lfoot -14.8961 -10.7702
ltoes -4.11353
